HIERARCHY
ROOT Hips
{
 OFFSET 0.000000 0.000000 0.000000
 CHANNELS 6 Xposition Yposition Zposition Yrotation Xrotation Zrotation
 JOINT Chest
 {
  OFFSET 0.000000 11.395451 -0.039534
  CHANNELS 3 Yrotation Xrotation Zrotation
  JOINT Chest2
  {
   OFFSET 0.000000 9.398669 0.071813
   CHANNELS 3 Yrotation Xrotation Zrotation
   JOINT Chest3
   {
    OFFSET 0.000000 8.489801 0.000000
    CHANNELS 3 Yrotation Xrotation Zrotation
    JOINT Chest4
    {
     OFFSET 0.000000 8.489801 0.000000
     CHANNELS 3 Yrotation Xrotation Zrotation
     JOINT Neck
     {
      OFFSET 0.000000 12.404889 0.000000
      CHANNELS 3 Yrotation Xrotation Zrotation
      JOINT Head
      {
       OFFSET 0.000000 8.903270 0.092239
       CHANNELS 3 Yrotation Xrotation Zrotation
       End Site
       {
        OFFSET 0.000000 17.592497 0.007158
       }
      }
     }
     JOINT RightCollar
     {
      OFFSET -3.196775 6.966722 0.000000
      CHANNELS 3 Yrotation Xrotation Zrotation
      JOINT RightShoulder
      {
       OFFSET -15.955896 0.000000 0.000000
       CHANNELS 3 Yrotation Xrotation Zrotation
       JOINT RightElbow
       {
        OFFSET -24.792472 0.000000 0.000000
        CHANNELS 3 Yrotation Xrotation Zrotation
        JOINT RightWrist
        {
         OFFSET -20.900115 0.000000 0.025002
         CHANNELS 3 Yrotation Xrotation Zrotation
         End Site
         {
          OFFSET -16.056692 0.000000 0.000000
         }
        }
       }
      }
     }
     JOINT LeftCollar
     {
      OFFSET 3.196775 6.966722 0.000000
      CHANNELS 3 Yrotation Xrotation Zrotation
      JOINT LeftShoulder
      {
       OFFSET 15.955896 0.000000 0.000000
       CHANNELS 3 Yrotation Xrotation Zrotation
       JOINT LeftElbow
       {
        OFFSET 24.792472 0.000000 0.000000
        CHANNELS 3 Yrotation Xrotation Zrotation
        JOINT LeftWrist
        {
         OFFSET 20.900115 0.000000 0.025002
         CHANNELS 3 Yrotation Xrotation Zrotation
         End Site
         {
          OFFSET 16.056692 0.000000 0.000000
         }
        }
       }
      }
     }
    }
   }
  }
 }
 JOINT RightHip
 {
  OFFSET -9.568995 0.193718 0.019767
  CHANNELS 3 Yrotation Xrotation Zrotation
  JOINT RightKnee
  {
   OFFSET 0.000000 -56.649296 0.015402
   CHANNELS 3 Yrotation Xrotation Zrotation
   JOINT RightAnkle
   {
    OFFSET 0.000000 -41.365147 0.021264
    CHANNELS 3 Yrotation Xrotation Zrotation
    JOINT RightToe
    {
     OFFSET 0.000000 -7.465940 17.672538
     CHANNELS 3 Yrotation Xrotation Zrotation
     End Site
     {
      OFFSET 0.000000 -1.736315 7.837145
     }
    }
   }
  }
 }
 JOINT LeftHip
 {
  OFFSET 9.568995 0.193718 0.019767
  CHANNELS 3 Yrotation Xrotation Zrotation
  JOINT LeftKnee
  {
   OFFSET 0.000000 -56.649296 0.015402
   CHANNELS 3 Yrotation Xrotation Zrotation
   JOINT LeftAnkle
   {
    OFFSET 0.000000 -41.365147 0.021264
    CHANNELS 3 Yrotation Xrotation Zrotation
    JOINT LeftToe
    {
     OFFSET 0.000000 -7.465940 17.672538
     CHANNELS 3 Yrotation Xrotation Zrotation
     End Site
     {
      OFFSET 0.000000 -1.736315 7.837145
     }
    }
   }
  }
 }
}
MOTION
Frames: 13
Frame Time: 0.016667
65.111866 106.646437 221.007362 91.830865 -10.933079 -1.017079 -3.120786 6.339628 0.685754 -1.394212 2.812966 0.346991 -1.394212 2.812966 0.346991 -1.047047 2.108947 0.266614 3.211457 15.843067 -1.582587 6.561306 -6.602028 -4.120458 2.364895 4.891862 8.331145 7.681780 -8.371277 74.599481 2.443472 0.477063 -1.436994 -0.650260 4.233157 0.804032 2.399578 5.518736 -9.362130 1.766332 -12.408833 -74.457743 -5.407449 2.579226 -3.857445 3.761535 0.655544 -0.231793 8.151337 13.813450 2.303905 -0.823957 1.370207 -0.058337 -3.689925 -5.927790 -0.838890 0.000000 0.000000 0.000000 6.605313 13.118648 4.220074 1.424919 6.147616 0.032096 9.940774 -8.795649 -1.988379 0.000000 0.000000 0.000000
65.149755 106.631293 220.940799 91.857179 -10.804831 -1.008398 -3.107983 6.272953 0.676499 -1.388350 2.783415 0.342270 -1.388349 2.783415 0.342269 -1.042616 2.086798 0.262980 3.207588 15.851404 -1.556400 6.544093 -6.588669 -4.069772 2.356823 4.824222 8.372311 7.605404 -8.339947 74.625213 2.326772 0.441845 -1.462015 -0.690138 4.244070 0.807569 2.415792 5.490080 -9.317292 1.754014 -12.322880 -74.447744 -5.126153 2.392880 -3.658321 3.748514 0.667359 -0.233040 8.172749 13.745651 2.276800 -0.887573 1.317804 -0.107127 -3.687896 -5.932342 -0.784711 -0.000000 -0.000000 -0.000000 6.499397 13.007329 4.127765 1.596484 6.172407 0.022623 9.811621 -8.841776 -1.931985 0.000000 0.000000 0.000000
65.187644 106.616149 220.874235 91.883501 -10.676587 -0.999661 -3.095191 6.206286 0.667167 -1.382496 2.753866 0.337518 -1.382495 2.753866 0.337518 -1.038194 2.064650 0.259325 3.203721 15.859724 -1.530208 6.526888 -6.575327 -4.019084 2.348649 4.756555 8.413415 7.529026 -8.308605 74.650830 2.210111 0.406556 -1.487055 -0.730024 4.254993 0.811038 2.431951 5.461362 -9.272488 1.741679 -12.236936 -74.437686 -4.845559 2.205562 -3.460115 3.735457 0.679136 -0.234284 8.194145 13.677891 2.249580 -0.951202 1.265403 -0.155842 -3.685874 -5.936895 -0.730531 -0.000000 0.000000 -0.000000 6.393601 12.895846 4.035843 1.768065 6.197074 0.013162 9.682398 -8.887744 -1.875458 0.000000 -0.000000 0.000000
65.226105 106.603359 220.809595 91.905909 -10.559104 -0.992626 -3.082505 6.147117 0.660201 -1.376729 2.727633 0.333871 -1.376729 2.727633 0.333871 -1.033843 2.044986 0.256506 3.196744 15.863577 -1.506478 6.505056 -6.570284 -3.972147 2.339865 4.695805 8.452547 7.454209 -8.283526 74.673829 2.109794 0.369911 -1.510182 -0.767749 4.262773 0.809339 2.443105 5.438502 -9.230686 1.746477 -12.151045 -74.430324 -4.598708 2.049606 -3.291470 3.725759 0.693867 -0.242558 8.209495 13.616233 2.220624 -1.002949 1.219238 -0.197728 -3.684422 -5.942878 -0.681158 0.000000 0.000000 0.000000 6.299141 12.797290 3.955244 1.923084 6.219339 0.007334 9.568272 -8.932775 -1.827706 -0.000000 0.000000 0.000000
65.265429 106.594236 220.747078 91.923540 -10.456991 -0.987801 -3.070067 6.098524 0.656809 -1.371128 2.706077 0.331885 -1.371128 2.706077 0.331885 -1.029626 2.028826 0.254944 3.184442 15.860557 -1.486642 6.475127 -6.578043 -3.930976 2.330215 4.646412 8.488360 7.376158 -8.267710 74.693724 2.035565 0.328927 -1.530632 -0.801505 4.264222 0.798399 2.446441 5.424577 -9.193750 1.775889 -12.065003 -74.426811 -4.398090 1.933096 -3.163180 3.721977 0.713409 -0.261328 8.212020 13.562094 2.187309 -1.034360 1.184922 -0.229250 -3.683145 -5.953597 -0.640321 -0.000000 0.000000 -0.000000 6.220967 12.717808 3.891337 2.053269 6.238003 0.007275 9.476520 -8.976709 -1.793664 0.000000 -0.000000 -0.000000
65.305325 106.587467 220.686485 91.937249 -10.365636 -0.984712 -3.057728 6.057420 0.655822 -1.365607 2.687833 0.331019 -1.365607 2.687833 0.331019 -1.025474 2.015148 0.254230 3.169024 15.853083 -1.469277 6.440546 -6.594073 -3.893557 2.320022 4.603948 8.522241 7.299668 -8.258177 74.711056 1.977685 0.286621 -1.549169 -0.833071 4.262492 0.782314 2.444822 5.416550 -9.159788 1.822398 -11.978991 -74.425913 -4.230701 1.848578 -3.063769 3.721606 0.736056 -0.287032 8.208503 13.514028 2.152364 -1.053893 1.156847 -0.254002 -3.682443 -5.965748 -0.604291 0.000000 0.000000 0.000000 6.154043 12.651354 3.838529 2.166884 6.254336 0.010814 9.399905 -9.019832 -1.768460 -0.000000 -0.000000 0.000000
65.345497 106.581475 220.629142 91.945677 -10.281966 -0.983666 -3.045145 6.022046 0.656141 -1.359999 2.672127 0.330768 -1.359999 2.672127 0.330768 -1.021262 2.003372 0.253982 3.154015 15.843949 -1.452565 6.407052 -6.613098 -3.857599 2.309666 4.562057 8.556387 7.240687 -8.252245 74.724890 1.923218 0.250710 -1.566148 -0.865676 4.263938 0.768251 2.441827 5.411181 -9.126122 1.880634 -11.893625 -74.426769 -4.091103 1.805313 -2.988096 3.720451 0.759476 -0.316156 8.213248 13.473811 2.122182 -1.075033 1.124415 -0.275923 -3.684062 -5.970845 -0.566696 0.000000 0.000000 0.000000 6.094573 12.592756 3.791253 2.272149 6.269775 0.015098 9.331818 -9.062066 -1.746303 -0.000000 -0.000000 -0.000000
65.386106 106.575833 220.575934 91.946500 -10.206457 -0.985276 -3.031965 5.993172 0.657914 -1.354150 2.659302 0.331198 -1.354151 2.659302 0.331198 -1.016873 1.993755 0.254251 3.140062 15.832938 -1.436441 6.375837 -6.635485 -3.823230 2.298670 4.518116 8.591718 7.208836 -8.249513 74.733207 1.866333 0.224619 -1.581739 -0.901327 4.272129 0.758846 2.439258 5.407435 -9.091687 1.955419 -11.807418 -74.428217 -3.983481 1.820928 -2.941372 3.716398 0.783058 -0.348865 8.235450 13.442350 2.101033 -1.102808 1.085792 -0.297265 -3.691677 -5.965316 -0.524454 0.000000 0.000000 0.000000 6.041774 12.542002 3.748212 2.371665 6.284962 0.019796 9.272152 -9.103813 -1.725897 0.000000 0.000000 0.000000
65.426991 106.570968 220.525975 91.942038 -10.138632 -0.988953 -3.018539 5.970024 0.661013 -1.348213 2.649013 0.332252 -1.348213 2.649013 0.332252 -1.012421 1.986039 0.254993 3.126524 15.820269 -1.420964 6.345711 -6.660867 -3.790311 2.287524 4.474757 8.627332 7.194495 -8.250382 74.738076 1.812832 0.204927 -1.595751 -0.938044 4.283501 0.751477 2.435330 5.406359 -9.057542 2.041911 -11.721825 -74.431408 -3.903506 1.878117 -2.917855 3.711521 0.807419 -0.385012 8.265902 13.418741 2.084606 -1.132189 1.042816 -0.315769 -3.701585 -5.952719 -0.480651 0.000000 -0.000000 -0.000000 5.996403 12.499132 3.710627 2.462830 6.299269 0.025237 9.221024 -9.144690 -1.708561 0.000000 0.000000 -0.000000
65.467371 106.566581 220.477938 91.937900 -10.073996 -0.993183 -3.005581 5.948531 0.663914 -1.342481 2.639461 0.333235 -1.342481 2.639461 0.333235 -1.008123 1.978876 0.255685 3.114988 15.809380 -1.404501 6.318847 -6.682877 -3.756163 2.278036 4.433499 8.662682 7.184746 -8.253370 74.744674 1.767218 0.189068 -1.607998 -0.973101 4.293716 0.745434 2.428228 5.407828 -9.024196 2.120269 -11.641894 -74.439006 -3.833020 1.933568 -2.896204 3.707911 0.832015 -0.420652 8.291298 13.402053 2.066418 -1.161577 0.990405 -0.328580 -3.704459 -5.935279 -0.438172 0.000000 0.000000 0.000000 5.956990 12.459028 3.676745 2.546062 6.312214 0.029573 9.172142 -9.183411 -1.692411 0.000000 0.000000 -0.000000
65.507790 106.562699 220.431080 91.937456 -10.013301 -0.997397 -2.994153 5.928443 0.666165 -1.337422 2.630535 0.333960 -1.337422 2.630535 0.333960 -1.004329 1.972182 0.256188 3.106174 15.801567 -1.386336 6.296253 -6.699122 -3.719634 2.271320 4.394323 8.697920 7.175273 -8.257719 74.753757 1.730417 0.178317 -1.618860 -1.006226 4.302078 0.741406 2.416588 5.411208 -8.991960 2.184014 -11.566956 -74.452680 -3.767122 1.977639 -2.869561 3.707229 0.857503 -0.456207 8.308949 13.396790 2.044113 -1.195883 0.922167 -0.332948 -3.694365 -5.911531 -0.397010 0.000000 0.000000 0.000000 5.922789 12.422943 3.646105 2.621585 6.322632 0.032200 9.122289 -9.218732 -1.677335 -0.000000 -0.000000 0.000000
65.547705 106.559295 220.386143 91.937334 -9.955794 -1.002159 -2.983193 5.910011 0.668223 -1.332569 2.622346 0.334617 -1.332569 2.622346 0.334617 -1.000689 1.966042 0.256642 3.099366 15.795531 -1.367185 6.276929 -6.712003 -3.681883 2.266266 4.357245 8.732890 7.170391 -8.264184 74.764573 1.701490 0.171415 -1.627955 -1.037692 4.309284 0.738728 2.401780 5.417143 -8.960519 2.239630 -11.497683 -74.470842 -3.710673 2.019937 -2.844928 3.707808 0.883206 -0.491264 8.321537 13.398443 2.020078 -1.230216 0.844501 -0.331584 -3.677237 -5.882957 -0.357166 0.000000 -0.000000 0.000000 5.894539 12.389643 3.619122 2.689169 6.331705 0.033726 9.074686 -9.251900 -1.663453 -0.000000 -0.000000 0.000000
65.584701 106.555996 220.344018 91.933031 -9.894722 -1.007648 -2.970231 5.889920 0.669917 -1.326820 2.613425 0.335077 -1.326820 2.613425 0.335077 -0.996377 1.959353 0.256943 3.093998 15.790825 -1.347571 6.260040 -6.722353 -3.643704 2.261336 4.323834 8.766580 7.170124 -8.273557 74.780032 1.682160 0.162004 -1.633961 -1.065587 4.313078 0.734659 2.386085 5.427424 -8.929447 2.286745 -11.441154 -74.491303 -3.660140 2.045912 -2.822026 3.706794 0.906532 -0.520647 8.323813 13.392554 1.994974 -1.248254 0.771494 -0.329873 -3.661565 -5.856202 -0.321530 0.000000 0.000000 0.000000 5.873011 12.350271 3.595383 2.748545 6.342475 0.034133 9.032691 -9.285359 -1.649220 -0.000000 -0.000000 -0.000000
